<?xml version="1.0" encoding="utf-8"?>
<!-- Generator: Adobe Illustrator 14.0.0, SVG Export Plug-In . SVG Version: 6.00 Build 43363)  -->
<!DOCTYPE svg PUBLIC "-//W3C//DTD SVG 1.1//EN" "http://www.w3.org/Graphics/SVG/1.1/DTD/svg11.dtd">
<svg version="1.1"
	 id="svg2" xmlns:cc="http://creativecommons.org/ns#" xmlns:rdf="http://www.w3.org/1999/02/22-rdf-syntax-ns#" xmlns:dc="http://purl.org/dc/elements/1.1/"
	 xmlns="http://www.w3.org/2000/svg" xmlns:xlink="http://www.w3.org/1999/xlink" x="0px" y="0px" width="200px" height="200px"
	 viewBox="0 0 200 200" enable-background="new 0 0 200 200" xml:space="preserve">
<g id="layer1" transform="translate(-124.13 -153.51)">
	<path id="rect2996" d="M131.343,176.313c-3.962,0-7.144,3.197-7.144,7.159v81.218v7.064v7.144h7.144h151.706h7.144v-7.144v-7.064
		v-81.218c0-3.962-3.182-7.159-7.144-7.159H131.343L131.343,176.313z"/>
	<path id="path3868" fill="#FFFFFF" stroke="#999999" stroke-width="0.8375" d="M138.972,181.477c-3.563,0-6.413,2.696-6.413,6.032
		v65.079v3.301v8.666v2.35v0.937h0.08c0.479,2.886,3.112,5.079,6.333,5.079h136.459c3.221,0,5.854-2.193,6.333-5.079h0.08v-0.937
		v-2.35v-11.968v-65.078c0-3.336-2.85-6.032-6.413-6.032H138.972L138.972,181.477z"/>
	<path id="rect3861" fill="#999999" d="M177.265,319.944l56.083-0.664c0,0,0.011,1.7,0.009,1.922
		c-0.003,0.316-0.013,1.193-0.636,1.551c-0.452,0.259-3.014,0.02-4.569,0c-6.623-0.086-35.139-0.029-44.827,0
		c-5.846,0.018-5.745,0-5.745,0c-0.568-0.525-0.368-1.082-0.368-1.513C177.213,320.506,177.266,319.944,177.265,319.944
		L177.265,319.944z"/>
	<path id="monitor_x5F_screen" fill="#5DF2FF" stroke="#999999" stroke-width="0.8339" d="M139.265,181.671
		c-3.548,0-6.385,2.684-6.385,6.005v64.796v3.287v8.63v2.339v0.933h0.079c0.478,2.874,3.099,5.058,6.306,5.058h135.873
		c3.207,0,5.828-2.184,6.306-5.058h0.079v-0.933v-2.339v-11.917v-64.796c0-3.322-2.836-6.006-6.385-6.006H139.265L139.265,181.671z"
		/>
	
		<radialGradient id="path3014_1_" cx="718.1661" cy="-95.865" r="105.9302" gradientTransform="matrix(0.3512 -0.3879 -0.5386 -0.4877 -92.3446 540.539)" gradientUnits="userSpaceOnUse">
		<stop  offset="0" style="stop-color:#E6E6E6"/>
		<stop  offset="1" style="stop-color:#CCCCCC"/>
	</radialGradient>
	<path id="path3014" fill="url(#path3014_1_)" d="M196.139,278.106v0.098l-72.009,0.566l9.217,12.023h62.79h21.725l63.142-0.207
		l9.173-11.744l-72.314-0.638v-0.099l-10.85,0.049L196.139,278.106z"/>
	
		<linearGradient id="path3839_1_" gradientUnits="userSpaceOnUse" x1="609.6652" y1="-438.1287" x2="608.9551" y2="-499.5579" gradientTransform="matrix(0.7838 0 0 -0.7838 -272.1639 -57.6245)">
		<stop  offset="0" style="stop-color:#E6E6E6"/>
		<stop  offset="0.186" style="stop-color:#CCCCCC"/>
		<stop  offset="0.3721" style="stop-color:#FFFFFF"/>
		<stop  offset="0.4505" style="stop-color:#F9F9F9"/>
		<stop  offset="0.6221" style="stop-color:#CCCCCC"/>
		<stop  offset="1" style="stop-color:#CCCCCC"/>
	</linearGradient>
	<path id="path3839" fill="url(#path3839_1_)" d="M191.655,290.664l-3.779,17.355c0,0-8.084,7.905-9.709,10.48
		c-0.87,1.381-1.145,1.387-0.744,1.959c0.56,0.798,1.05,0.863,2.559,0.842c9.151-0.135,37.823-0.23,49.263-0.113
		c2.707,0.027,3.285-0.404,3.678-0.813c0.34-0.354,0.669-0.72,0.006-1.471c-3.225-3.66-9.782-10.885-9.782-10.885l-1.217-17.422
		L191.655,290.664z"/>
	
		<linearGradient id="path3870_1_" gradientUnits="userSpaceOnUse" x1="470.1105" y1="-261.8904" x2="608.3275" y2="-404.7504" gradientTransform="matrix(0.7838 0 0 -0.7838 -277.6224 -58.3228)">
		<stop  offset="0" style="stop-color:#FFFFFF"/>
		<stop  offset="1" style="stop-color:#FFFFFF;stop-opacity:0"/>
	</linearGradient>
	<path id="path3870" fill="url(#path3870_1_)" d="M131.355,176.313c-3.962,0-7.152,3.189-7.152,7.152v81.217v7.078v7.006h-0.074
		l0.074,0.098v0.024h0.024l9.111,11.903h3.38l79.21-114.481h-84.574L131.355,176.313z"/>
	<path id="rect3918" fill="#4D4D4D" d="M251.071,231.168h67.74c2.938,0,5.318,2.381,5.318,5.318v87.335
		c0,2.938-2.381,5.318-5.318,5.318h-67.74c-2.938,0-5.318-2.381-5.318-5.318v-87.335
		C245.753,233.549,248.134,231.168,251.071,231.168z"/>
	<path id="rect3908" d="M251.071,232.735h67.74c2.938,0,5.318,2.381,5.318,5.318v87.336c0,2.938-2.381,5.318-5.318,5.318h-67.74
		c-2.938,0-5.318-2.381-5.318-5.318v-87.336C245.753,235.116,248.134,232.735,251.071,232.735z"/>
	<rect id="rect3910" x="250.659" y="238.867" fill="#999999" width="68.559" height="82.62"/>
	<rect id="ipad_x5F_screen" x="251.217" y="239.536" fill="#558DFF" width="67.455" height="81.288"/>
	
		<linearGradient id="rect3057_1_" gradientUnits="userSpaceOnUse" x1="735.6017" y1="-380.0417" x2="821.9715" y2="-468.1716" gradientTransform="matrix(0.7838 0 0 -0.7838 -357.6092 -76.9263)">
		<stop  offset="0" style="stop-color:#FFFFFF"/>
		<stop  offset="1" style="stop-color:#FFFFFF;stop-opacity:0"/>
	</linearGradient>
	<path id="rect3057" fill="url(#rect3057_1_)" d="M251.082,232.735c-2.946,0-5.339,2.369-5.339,5.315v87.344
		c0,2.946,2.393,5.315,5.339,5.315h3.208l53.885-97.973h-57.094L251.082,232.735z"/>
	<path id="path3080" fill="none" stroke="#666666" stroke-width="0.8013" d="M281.505,327.603v-1.386l2.821-1.336l2.425,1.088
		l0.049,1.633L281.505,327.603z"/>
	<g id="g3858" transform="matrix(1.3355 0 0 1.3355 -167.29 -246.83)">
		
			<rect id="rect3852" x="350.156" y="428.361" fill="#999999" stroke="#666666" stroke-width="0.5237" stroke-linecap="round" stroke-linejoin="round" width="4.269" height="0.194"/>
		
			<rect id="rect3854" x="350.233" y="429.218" fill="#999999" stroke="#666666" stroke-width="0.5237" stroke-linecap="round" stroke-linejoin="round" width="4.269" height="0.194"/>
		
			<rect id="rect3856" x="350.156" y="430.104" fill="#999999" stroke="#666666" stroke-width="0.5237" stroke-linecap="round" stroke-linejoin="round" width="4.269" height="0.193"/>
	</g>
	<g id="g3867" transform="matrix(1.3355 0 0 1.3355 -179.94 -245.74)">
		<path id="path3863" fill="none" stroke="#999999" stroke-width="0.2" d="M330.008,429.122h4.705v-1.556h-4.668"/>
		<path id="path3865" fill="#999999" stroke="#999999" stroke-width="0.7628" d="M330.337,427.378v0.529l-0.549-0.23
			L330.337,427.378z"/>
	</g>
	<path id="path3993" fill="#666666" d="M242.29,273.487v0.049c-4.14-0.006-8.49-0.018-11.731,0c-3.032,0.018-3.63,4.329-3.747,5.684
		h-0.049v0.588l-0.318,42.691v0.416h0.049c0.092,1.031,0.652,5.444,3.82,5.461c3.311,0.019,7.758,0.007,11.977,0
		c0.182,0,0.334,0.001,0.515,0c4.219,0.007,8.667,0.019,11.978,0c3.564-0.019,3.526-5.976,3.526-5.976h-0.024l0.098-42.985
		c0,0,0.001-0.164,0-0.195c-0.012-0.557-0.222-5.713-3.6-5.731C251.329,273.469,246.67,273.481,242.29,273.487L242.29,273.487z"/>
	<path id="path3937" d="M242.29,274.274v0.049c-4.14-0.006-8.49-0.018-11.731,0c-3.032,0.017-3.63,4.328-3.747,5.682h-0.049v0.588
		l-0.318,42.691v0.417h0.049c0.092,1.032,0.652,5.444,3.82,5.462c3.311,0.018,7.758,0.006,11.977,0c0.182,0,0.334,0,0.515,0
		c4.219,0.006,8.667,0.018,11.978,0c3.564-0.02,3.526-5.977,3.526-5.977h-0.024l0.098-42.984c0,0,0.001-0.165,0-0.195
		c-0.012-0.558-0.222-5.713-3.6-5.732C251.329,274.255,246.67,274.268,242.29,274.274L242.29,274.274z"/>
	<path id="path3967" fill="#666666" d="M237.514,279.995l1.642-1.204l6.646,0.083l1.941,1.121H237.514z"/>
	<path id="path3969" d="M237.76,279.995l1.478-0.921l6.646,0.082l1.751,0.839H237.76z"/>
	
		<rect id="iphone_x5F_screen" x="228.054" y="279.995" fill="#C25FFF" stroke="#808080" stroke-width="0.2664" width="29.206" height="44.315"/>
	<path id="rect3979" fill="none" stroke="#808080" stroke-width="0.6477" d="M242.009,326.1l-1.189,1.125h0.347v0.836h1.686v-0.816
		l0.474,0.01L242.009,326.1z"/>
	
		<linearGradient id="path4011_1_" gradientUnits="userSpaceOnUse" x1="516.295" y1="-522.363" x2="523.6151" y2="-622.2437" gradientTransform="matrix(0.7838 0 0 -0.7838 -168.1024 -171.2778)">
		<stop  offset="0" style="stop-color:#FFFFFF"/>
		<stop  offset="1" style="stop-color:#FFFFFF;stop-opacity:0"/>
	</linearGradient>
	<path id="path4011" fill="url(#path4011_1_)" d="M242.29,274.274v0.049c-4.14-0.006-8.49-0.018-11.731,0
		c-3.032,0.017-3.63,4.328-3.747,5.682h-0.049v0.588l-0.318,42.691v0.417h0.049c0.089,1.01,0.637,5.237,3.625,5.438l25.473-54.718
		c-0.252-0.074-0.51-0.145-0.809-0.146C251.33,274.255,246.671,274.268,242.29,274.274L242.29,274.274z"/>
</g>
</svg>
