<?xml version="1.0"?>
<svg xmlns:rdf="http://www.w3.org/1999/02/22-rdf-syntax-ns#" xmlns="http://www.w3.org/2000/svg" xmlns:cc="http://creativecommons.org/ns#" xmlns:xlink="http://www.w3.org/1999/xlink" xmlns:dc="http://purl.org/dc/elements/1.1/" id="svg2865" viewBox="0 0 500.11 586.78" version="1.0">
 <defs id="defs2867">
  <linearGradient id="linearGradient3442">
   <stop id="stop3444" offset="0"/>
   <stop id="stop3446" stop-color="#b3b3b3" offset="1"/>
  </linearGradient>
  <radialGradient id="radialGradient8257" gradientUnits="userSpaceOnUse" cy="541.23" cx="2000.1" gradientTransform="matrix(-7.4522e-8 .27597 -.62317 -.0022047 671.63 -59.371)" r="345.61">
   <stop id="stop3338" stop-color="rgb(93, 242, 255)" offset="0"/>
   <stop id="stop3340" stop-color="#fff" offset="1"/>
  </radialGradient>
  <radialGradient id="radialGradient8259" xlink:href="#linearGradient3442" gradientUnits="userSpaceOnUse" cy="365.12" cx="2002.1" gradientTransform="matrix(.011179 .77174 -.64956 .0094086 1800 -2956.6)" r="250.31"/>
  <radialGradient id="radialGradient8261" gradientUnits="userSpaceOnUse" cy="297.49" cx="2e3" gradientTransform="matrix(-4.7828e-7 .71016 -.67316 -4.3725e-7 1789 -2870.4)" r="222.86">
   <stop id="stop3536" stop-color="rgb(93, 242, 255)" offset="0"/>
   <stop id="stop3538" stop-color="rgb(93, 242, 255)" offset="1"/>
  </radialGradient>
  <radialGradient id="radialGradient8263" gradientUnits="userSpaceOnUse" cy="365.12" cx="2002.1" gradientTransform="matrix(-.0062739 1.4496 -1.3184 -.0057074 2494.1 -2527.7)" r="250.31">
   <stop id="stop3389" offset="0"/>
   <stop id="stop3391" stop-color="rgb(85, 141, 255)" offset="1"/>
  </radialGradient>
  <radialGradient id="radialGradient8265" gradientUnits="userSpaceOnUse" cy="302.64" cx="2000.1" gradientTransform="matrix(-7.9868e-7 1.1859 -1.1241 -7.3017e-7 2340.3 -2069.6)" r="222.86">
   <stop id="stop3379" stop-color="rgb(85, 141, 255)" offset="0"/>
   <stop id="stop3381" stop-color="rgb(85, 141, 255)" offset="1"/>
  </radialGradient>
  <radialGradient id="radialGradient8267" xlink:href="#linearGradient3442" gradientUnits="userSpaceOnUse" cy="365.12" cx="2002.1" gradientTransform="matrix(.018667 1.2887 -1.0847 .015712 2319 -2040.2)" r="250.31"/>
  <radialGradient id="radialGradient8269" gradientUnits="userSpaceOnUse" cy="297.49" cx="2e3" gradientTransform="matrix(-7.9868e-7 1.1859 -1.1241 -7.3017e-7 2300.6 -1896.2)" r="222.86">
   <stop id="stop3466" stop-color="rgb(194, 95, 255)" offset="0"/>
   <stop id="stop3468" stop-color="rgb(194, 95, 255)" offset="1"/>
  </radialGradient>
 </defs>
 <g id="g8240" transform="translate(-95.001 -.000051350)">
  <path id="path3594" opacity=".6" d="m549.74 491.41c0 52.67-96.43 95.37-215.38 95.37s-215.38-42.7-215.38-95.37c0-52.68 96.43-95.38 215.38-95.38s215.38 42.7 215.38 95.38z" fill="url(#radialGradient8257)"/>
  <g id="g3549" transform="translate(-1075.7 1275.6)">
   <g id="g3540" transform="matrix(.98481 .17365 -.17365 .98481 -302.41 191.87)">
    <rect id="rect3507" opacity=".75" transform="matrix(.99619 -.087156 .087156 .99619 0 0)" rx="16.254" ry="20.531" height="372.99" width="299.79" y="-1593.7" x="1441.4" fill="url(#radialGradient8259)"/>
    <rect id="rect3509" transform="matrix(.99619 -.087156 .087156 .99619 0 0)" rx="16.254" ry="20.531" height="372.99" width="299.79" stroke="#000" y="-1599.7" x="1435.5" stroke-width=".59883" fill="#fff"/>
    <rect id="rect3511" transform="matrix(.99619 -.087156 .087156 .99619 0 0)" rx="0" ry="0" height="275.64" width="266.91" y="-1582.6" x="1451.9" fill="url(#radialGradient8261)"/>
   </g>
   <g id="g3517">
    <g id="g3404" transform="matrix(.57843 .15499 -.15499 .57843 377.34 -1493.4)">
     <rect id="rect3406" rx="27.143" ry="34.286" height="622.86" width="500.62" y="62.362" x="1760" fill="url(#radialGradient8263)"/>
     <rect id="rect3408" rx="27.143" ry="34.286" height="622.86" width="500.62" stroke="#000" y="52.362" x="1750" fill="#fff"/>
     <rect id="rect3410" rx="0" ry="0" height="460.29" width="445.71" y="80.934" x="1777.5" fill="url(#radialGradient8265)"/>
    </g>
    <g id="g3470" transform="matrix(.59883 0 0 .59883 137.32 -1202.5)">
     <rect id="rect3385" opacity=".75" transform="matrix(.99619 -.087156 .087156 .99619 0 0)" rx="27.143" ry="34.286" height="622.86" width="500.62" y="235.71" x="1720.2" fill="url(#radialGradient8267)"/>
     <rect id="rect3373" transform="matrix(.99619 -.087156 .087156 .99619 0 0)" rx="27.143" ry="34.286" height="622.86" width="500.62" stroke="#000" y="225.71" x="1710.2" fill="#fff"/>
     <rect id="rect3375" transform="matrix(.99619 -.087156 .087156 .99619 0 0)" rx="0" ry="0" height="460.29" width="445.71" y="254.28" x="1737.7" fill="url(#radialGradient8269)"/>
    </g>
   </g>
  </g>
 </g>
 <metadata>
  <rdf:RDF>
   <cc:Work>
    <dc:format>image/svg+xml</dc:format>
    <dc:type rdf:resource="http://purl.org/dc/dcmitype/StillImage"/>
    <cc:license rdf:resource="http://creativecommons.org/licenses/publicdomain/"/>
    <dc:publisher>
     <cc:Agent rdf:about="http://openclipart.org/">
      <dc:title>Openclipart</dc:title>
     </cc:Agent>
    </dc:publisher>
   </cc:Work>
   <cc:License rdf:about="http://creativecommons.org/licenses/publicdomain/">
    <cc:permits rdf:resource="http://creativecommons.org/ns#Reproduction"/>
    <cc:permits rdf:resource="http://creativecommons.org/ns#Distribution"/>
    <cc:permits rdf:resource="http://creativecommons.org/ns#DerivativeWorks"/>
   </cc:License>
  </rdf:RDF>
 </metadata>
</svg>
