<?xml version="1.0" encoding="utf-8"?>
<!-- Generator: Adobe Illustrator 14.0.0, SVG Export Plug-In . SVG Version: 6.00 Build 43363)  -->
<!DOCTYPE svg PUBLIC "-//W3C//DTD SVG 1.1//EN" "http://www.w3.org/Graphics/SVG/1.1/DTD/svg11.dtd">
<svg version="1.1" id="Layer_1" xmlns="http://www.w3.org/2000/svg" xmlns:xlink="http://www.w3.org/1999/xlink" x="0px" y="0px"
	 width="76px" height="76px" viewBox="0 0 76 76" enable-background="new 0 0 76 76" xml:space="preserve">
<path fill="none" stroke="#9F9F9F" d="M75,63.2C75,69.7,69.7,75,63.2,75H12.8C6.3,75,1,69.7,1,63.2V12.8C1,6.3,6.3,1,12.8,1h50.4
	C69.7,1,75,6.3,75,12.8V63.2z"/>
<path fill="none" stroke="#9F9F9F" d="M59,52.3c0,3.7-3,6.7-6.7,6.7H23.7C20,59,17,56,17,52.3V23.7c0-3.7,3-6.7,6.7-6.7h28.6
	c3.7,0,6.7,3,6.7,6.7V52.3z"/>
<line fill="none" stroke="#9F9F9F" x1="38" y1="30.7" x2="38" y2="45.5"/>
<line fill="none" stroke="#9F9F9F" x1="45.4" y1="38" x2="30.6" y2="38"/>
</svg>
