<?xml version="1.0" encoding="utf-8"?>
<!-- Generator: Adobe Illustrator 14.0.0, SVG Export Plug-In . SVG Version: 6.00 Build 43363)  -->
<!DOCTYPE svg PUBLIC "-//W3C//DTD SVG 1.1//EN" "http://www.w3.org/Graphics/SVG/1.1/DTD/svg11.dtd">
<svg version="1.1" id="Layer_1" xmlns="http://www.w3.org/2000/svg" xmlns:xlink="http://www.w3.org/1999/xlink" x="0px" y="0px"
	 width="123.018px" height="124.044px" viewBox="0 0 123.018 124.044" enable-background="new 0 0 123.018 124.044"
	 xml:space="preserve">
<symbol  id="Snowflake2" viewBox="-61.509 -62.022 123.018 124.044">
	<path fill="none" stroke="#FFFFFF" stroke-width="2" stroke-miterlimit="10" d="M22.907-9.367
		C17.497-21.456,3.452-26.801-8.47-21.318c-11.918,5.487-17.199,19.725-11.787,31.811c5.412,12.084,19.455,17.433,31.375,11.953
		C23.036,16.954,28.315,2.719,22.907-9.367z"/>
	<path fill="#FFFFFF" d="M9.198-3.062C7.223-7.465,2.098-9.416-2.25-7.419C-6.597-5.422-8.521-0.222-6.548,4.187
		c1.972,4.4,7.099,6.355,11.441,4.355C9.243,6.539,11.169,1.343,9.198-3.062"/>
	<path fill="none" stroke="#FFFFFF" stroke-width="2" stroke-miterlimit="10" d="M9.198-3.062C7.223-7.465,2.098-9.416-2.25-7.419
		C-6.597-5.422-8.521-0.222-6.548,4.187c1.972,4.4,7.099,6.355,11.441,4.355C9.243,6.539,11.169,1.343,9.198-3.062z"/>
	<line fill="none" stroke="#FFFFFF" stroke-width="2" stroke-miterlimit="10" x1="28.417" y1="61.088" x2="11.179" y2="22.572"/>
	<line fill="none" stroke="#FFFFFF" stroke-width="2" stroke-miterlimit="10" x1="-23.899" y1="61.659" x2="-8.59" y2="22.338"/>
	<line fill="none" stroke="#FFFFFF" stroke-width="2" stroke-miterlimit="10" x1="23.054" y1="8.785" x2="61.015" y2="23.393"/>
	<line fill="none" stroke="#FFFFFF" stroke-width="2" stroke-miterlimit="10" x1="23.04" y1="-9.425" x2="61.03" y2="-26.907"/>
	<line fill="none" stroke="#FFFFFF" stroke-width="2" stroke-miterlimit="10" x1="9.495" y1="-22.131" x2="24.38" y2="-61.669"/>
	<line fill="none" stroke="#FFFFFF" stroke-width="2" stroke-miterlimit="10" x1="-8.528" y1="-21.451" x2="-25.774" y2="-59.97"/>
	<line fill="none" stroke="#FFFFFF" stroke-width="2" stroke-miterlimit="10" x1="-21.028" y1="-7.805" x2="-60.058" y2="-22.823"/>
	<line fill="none" stroke="#FFFFFF" stroke-width="2" stroke-miterlimit="10" x1="-20.388" y1="10.552" x2="-58.378" y2="28.03"/>
	
		<line fill="none" stroke="#FFFFFF" stroke-width="2" stroke-linecap="round" stroke-miterlimit="10" x1="6.034" y1="57.042" x2="16.271" y2="36.521"/>
	
		<line fill="none" stroke="#FFFFFF" stroke-width="2" stroke-linecap="round" stroke-miterlimit="10" x1="16.925" y1="35.411" x2="39.036" y2="40.558"/>
	
		<line fill="none" stroke="#FFFFFF" stroke-width="2" stroke-linecap="round" stroke-miterlimit="10" x1="60.509" y1="-6.2" x2="40.263" y2="-16.577"/>
	
		<line fill="none" stroke="#FFFFFF" stroke-width="2" stroke-linecap="round" stroke-miterlimit="10" x1="39.171" y1="-17.245" x2="44.241" y2="-39.657"/>
	
		<line fill="none" stroke="#FFFFFF" stroke-width="2" stroke-linecap="round" stroke-miterlimit="10" x1="-60.509" y1="8.541" x2="-40.265" y2="18.919"/>
	
		<line fill="none" stroke="#FFFFFF" stroke-width="2" stroke-linecap="round" stroke-miterlimit="10" x1="-39.173" y1="19.586" x2="-44.242" y2="41.999"/>
	
		<line fill="none" stroke="#FFFFFF" stroke-width="2" stroke-linecap="round" stroke-miterlimit="10" x1="-5.396" y1="-59.557" x2="-15.632" y2="-39.036"/>
	
		<line fill="none" stroke="#FFFFFF" stroke-width="2" stroke-linecap="round" stroke-miterlimit="10" x1="-16.286" y1="-37.922" x2="-38.396" y2="-43.065"/>
	
		<line fill="none" stroke="#FFFFFF" stroke-width="2" stroke-linecap="round" stroke-miterlimit="10" x1="30.228" y1="26.028" x2="25.399" y2="9.308"/>
	
		<line fill="none" stroke="#FFFFFF" stroke-width="2" stroke-linecap="round" stroke-miterlimit="10" x1="24.739" y1="9.815" x2="39.589" y2="1.048"/>
	
		<line fill="none" stroke="#FFFFFF" stroke-width="2" stroke-linecap="round" stroke-miterlimit="10" x1="46.046" y1="32.808" x2="41.218" y2="16.088"/>
	
		<line fill="none" stroke="#FFFFFF" stroke-width="2" stroke-linecap="round" stroke-miterlimit="10" x1="41.013" y1="15.131" x2="55.866" y2="6.363"/>
	
		<line fill="none" stroke="#FFFFFF" stroke-width="2" stroke-linecap="round" stroke-miterlimit="10" x1="27.972" y1="-28.087" x2="11.481" y2="-23.19"/>
	
		<line fill="none" stroke="#FFFFFF" stroke-width="2" stroke-linecap="round" stroke-miterlimit="10" x1="10.538" y1="-22.988" x2="1.886" y2="-38.04"/>
	
		<line fill="none" stroke="#FFFFFF" stroke-width="2" stroke-linecap="round" stroke-miterlimit="10" x1="33.868" y1="-45.874" x2="17.37" y2="-40.988"/>
	
		<line fill="none" stroke="#FFFFFF" stroke-width="2" stroke-linecap="round" stroke-miterlimit="10" x1="16.431" y1="-40.777" x2="7.779" y2="-55.834"/>
	
		<line fill="none" stroke="#FFFFFF" stroke-width="2" stroke-linecap="round" stroke-miterlimit="10" x1="-26.819" y1="29.858" x2="-10.327" y2="24.962"/>
	
		<line fill="none" stroke="#FFFFFF" stroke-width="2" stroke-linecap="round" stroke-miterlimit="10" x1="-9.386" y1="24.76" x2="-0.735" y2="39.812"/>
	
		<line fill="none" stroke="#FFFFFF" stroke-width="2" stroke-linecap="round" stroke-miterlimit="10" x1="-33.753" y1="48.56" x2="-17.263" y2="43.664"/>
	
		<line fill="none" stroke="#FFFFFF" stroke-width="2" stroke-linecap="round" stroke-miterlimit="10" x1="-16.317" y1="43.462" x2="-7.67" y2="58.515"/>
	
		<line fill="none" stroke="#FFFFFF" stroke-width="2" stroke-linecap="round" stroke-miterlimit="10" x1="-29.233" y1="-26.619" x2="-24.407" y2="-9.899"/>
	
		<line fill="none" stroke="#FFFFFF" stroke-width="2" stroke-linecap="round" stroke-miterlimit="10" x1="-24.202" y1="-8.942" x2="-39.053" y2="-0.168"/>
	
		<line fill="none" stroke="#FFFFFF" stroke-width="2" stroke-linecap="round" stroke-miterlimit="10" x1="-45.612" y1="-33.44" x2="-40.786" y2="-16.724"/>
	
		<line fill="none" stroke="#FFFFFF" stroke-width="2" stroke-linecap="round" stroke-miterlimit="10" x1="-40.581" y1="-15.76" x2="-55.429" y2="-6.99"/>
</symbol>
<use xlink:href="#Snowflake2"  width="123.018" height="124.044" x="-61.509" y="-62.022" transform="matrix(1 0 0 -1 61.5088 62.022)" overflow="visible"/>
</svg>
