<?xml version="1.0" encoding="utf-8"?>
<!-- Generator: Adobe Illustrator 14.0.0, SVG Export Plug-In . SVG Version: 6.00 Build 43363)  -->
<!DOCTYPE svg PUBLIC "-//W3C//DTD SVG 1.1//EN" "http://www.w3.org/Graphics/SVG/1.1/DTD/svg11.dtd">
<svg version="1.1" id="Layer_1" xmlns="http://www.w3.org/2000/svg" xmlns:xlink="http://www.w3.org/1999/xlink" x="0px" y="0px"
	 width="130.064px" height="113.635px" viewBox="0 0 130.064 113.635" enable-background="new 0 0 130.064 113.635"
	 xml:space="preserve">
<symbol  id="Snowflake3" viewBox="-65.032 -56.817 130.064 113.635">
	<path fill="none" stroke="#FFFFFF" stroke-width="2.085" stroke-linecap="round" stroke-miterlimit="10" d="M31.5,20.179
		C42.795,3.001,38.021-20.08,20.85-31.367c-17.179-11.29-40.248-6.519-51.543,10.658C-41.984-3.535-37.217,19.539-20.042,30.83
		C-2.868,42.122,20.213,37.354,31.5,20.179z"/>
	<path fill="none" stroke="#FFFFFF" stroke-width="2" stroke-linecap="round" stroke-miterlimit="10" d="M17.911,11.243
		c6.358-9.671,3.67-22.665-5.996-29.021c-9.671-6.354-22.657-3.667-29.019,6c-6.355,9.67-3.672,22.662,5.996,29.018
		C-1.438,23.597,11.557,20.912,17.911,11.243z"/>
	
		<line fill="none" stroke="#FFFFFF" stroke-width="2.085" stroke-linecap="round" stroke-linejoin="round" stroke-miterlimit="10" x1="-30.569" y1="52.618" x2="31.844" y2="-54.978"/>
	<polyline fill="none" stroke="#FFFFFF" stroke-width="2.085" stroke-linecap="round" stroke-miterlimit="10" points="
		41.503,-39.077 20.012,-34.193 13.992,-55.136 	"/>
	<polyline fill="none" stroke="#FFFFFF" stroke-width="2.085" stroke-linecap="round" stroke-miterlimit="10" points="
		-12.452,53.342 -18.77,32.233 -39.959,37.286 	"/>
	
		<line fill="none" stroke="#FFFFFF" stroke-width="2.085" stroke-linecap="round" stroke-linejoin="round" stroke-miterlimit="10" x1="-29.312" y1="-55.774" x2="29.638" y2="55.775"/>
	<polyline fill="none" stroke="#FFFFFF" stroke-width="2.085" stroke-linecap="round" stroke-miterlimit="10" points="10.97,54.526 
		18.17,33.693 39.125,39.639 	"/>
	<polyline fill="none" stroke="#FFFFFF" stroke-width="2.085" stroke-linecap="round" stroke-miterlimit="10" points="
		-39.032,-40.091 -17.771,-34.315 -10.877,-54.978 	"/>
	<polyline fill="none" stroke="#FFFFFF" stroke-width="2.085" stroke-linecap="round" stroke-miterlimit="10" points="
		-52.516,16.707 -37.789,0.314 -53.148,-15.135 	"/>
	<polyline fill="none" stroke="#FFFFFF" stroke-width="2.085" stroke-linecap="round" stroke-miterlimit="10" points="
		54.474,14.583 39.108,-1.21 53.842,-17.26 	"/>
	
		<line fill="none" stroke="#FFFFFF" stroke-width="2.085" stroke-linecap="round" stroke-linejoin="round" stroke-miterlimit="10" x1="-63.989" y1="0.341" x2="63.99" y2="-1.528"/>
</symbol>
<use xlink:href="#Snowflake3"  width="130.064" height="113.635" x="-65.032" y="-56.817" transform="matrix(1 0 0 -1 65.0317 56.8179)" overflow="visible"/>
</svg>
