<?xml version="1.0" encoding="utf-8"?>
<!-- Generator: Adobe Illustrator 14.0.0, SVG Export Plug-In . SVG Version: 6.00 Build 43363)  -->
<!DOCTYPE svg PUBLIC "-//W3C//DTD SVG 1.1//EN" "http://www.w3.org/Graphics/SVG/1.1/DTD/svg11.dtd">
<svg version="1.1" id="Layer_1" xmlns="http://www.w3.org/2000/svg" xmlns:xlink="http://www.w3.org/1999/xlink" x="0px" y="0px"
	 width="112.752px" height="128.241px" viewBox="0 0 112.752 128.241" enable-background="new 0 0 112.752 128.241"
	 xml:space="preserve">
<symbol  id="Snowflake5" viewBox="-56.376 -64.12 112.752 128.241">
	
		<line fill="none" stroke="#FFFFFF" stroke-width="2" stroke-linecap="round" stroke-linejoin="round" stroke-miterlimit="10" x1="-51.519" y1="35.212" x2="52.719" y2="-36.315"/>
	<polyline fill="none" stroke="#FFFFFF" stroke-width="2" stroke-linecap="round" stroke-miterlimit="10" points="53.581,-18.417 
		32.978,-22.974 36.326,-43.562 	"/>
	<polyline fill="none" stroke="#FFFFFF" stroke-width="2" stroke-linecap="round" stroke-miterlimit="10" points="-30.911,39.561 
		-27.751,18.697 -48.169,14.414 	"/>
	<polyline fill="none" stroke="#FFFFFF" stroke-width="2" stroke-linecap="round" stroke-miterlimit="10" points="30.302,-10.989 
		18.789,-13.54 20.656,-25.05 	"/>
	<polyline fill="none" stroke="#FFFFFF" stroke-width="2" stroke-linecap="round" stroke-miterlimit="10" points="-17.636,21.282 
		-16.004,10.552 -26.517,8.345 	"/>
	
		<line fill="none" stroke="#FFFFFF" stroke-width="2" stroke-linecap="round" stroke-linejoin="round" stroke-miterlimit="10" x1="5.963" y1="63.12" x2="-0.751" y2="-63.12"/>
	<polyline fill="none" stroke="#FFFFFF" stroke-width="2" stroke-linecap="round" stroke-miterlimit="10" points="14.974,-54.532 
		0.345,-39.317 -15.479,-52.909 	"/>
	<polyline fill="none" stroke="#FFFFFF" stroke-width="2" stroke-linecap="round" stroke-miterlimit="10" points="20.415,47.799 
		4.26,34.231 -10.042,49.423 	"/>
	<polyline fill="none" stroke="#FFFFFF" stroke-width="2" stroke-linecap="round" stroke-miterlimit="10" points="9.18,-30.786 
		0.999,-22.294 -7.846,-29.886 	"/>
	<polyline fill="none" stroke="#FFFFFF" stroke-width="2" stroke-linecap="round" stroke-miterlimit="10" points="11.735,26.947 
		3.424,19.96 -3.933,27.778 	"/>
	
		<line fill="none" stroke="#FFFFFF" stroke-width="2" stroke-linecap="round" stroke-linejoin="round" stroke-miterlimit="10" x1="-55.376" y1="-33.343" x2="55.376" y2="27.605"/>
	<polyline fill="none" stroke="#FFFFFF" stroke-width="2" stroke-linecap="round" stroke-miterlimit="10" points="39.779,36.426 
		34.585,15.972 54.479,9.706 	"/>
	<polyline fill="none" stroke="#FFFFFF" stroke-width="2" stroke-linecap="round" stroke-miterlimit="10" points="-49.997,-12.981 
		-29.943,-19.54 -35.296,-39.702 	"/>
	<polyline fill="none" stroke="#FFFFFF" stroke-width="2" stroke-linecap="round" stroke-miterlimit="10" points="22.677,18.968 
		19.777,7.536 30.896,4.03 	"/>
	<polyline fill="none" stroke="#FFFFFF" stroke-width="2" stroke-linecap="round" stroke-miterlimit="10" points="-27.706,-9.341 
		-17.386,-12.71 -20.14,-23.089 	"/>
</symbol>
<use xlink:href="#Snowflake5"  width="112.752" height="128.241" x="-56.376" y="-64.12" transform="matrix(1 0 0 -1 56.376 64.1206)" overflow="visible"/>
</svg>
